<svg width="800px" height="800px" viewBox="0 0 24 24" xmlns="http://www.w3.org/2000/svg">
  <rect width="24" height="24" fill="none"/>
  <!-- Define linear gradient -->
  <radialGradient id="gradient" cx="0" cy="0.5" r="0.9" fx="0.25" fy="0.25">
    <stop offset="10%" stop-color="#0fbfda">
                    <animate attributeName="stop-opacity" values="1.4;0.7;1.4" dur="5s" repeatCount="indefinite" />
                    <animate attributeName="stop-color" from="#0fbfda" to="#0fbfda" dur="5s" repeatCount="indefinite" />

    </stop>
    <stop offset="70%" stop-color="#107d8e"/>
  </radialGradient>
  <!-- Apply linear gradient to path -->
  <path d="M20.84,16.35a1,1,0,0,1-1-.75l-1.39-5.54a.49.49,0,0,0-1,0l-1.09,4.36a2.5,2.5,0,0,1-4.86,0l-1.09-4.36a.49.49,0,0,0-1,0L8.43,14.42a2.5,2.5,0,0,1-4.86,0L2.15,8.74A1,1,0,0,1,4.1,8.26l1.42,5.68a.49.49,0,0,0,1,0L7.57,9.58a2.5,2.5,0,0,1,4.86,0l1.09,4.36a.49.49,0,0,0,1,0l1.09-4.36a2.5,2.5,0,0,1,4.86,0l1.38,5.53a1,1,0,0,1-1,1.24Z" fill="url(#gradient)"/>
</svg>
